<svg xmlns="http://www.w3.org/2000/svg" viewBox="0 0 120 120" role="img" aria-label="sidequest Wolf, Variante 11-origami, hell"><title>sidequest Wolf, Variante 11-origami, hell</title><g stroke-width=".8" stroke-linejoin="round">
<polygon points="33,9 49,34 20,45" fill="#3A4866" stroke="#3A4866"/>
<polygon points="87,9 71,34 100,45" fill="#172238" stroke="#172238"/>
<polygon points="34,17 45,33 25,41" fill="#55658A" stroke="#55658A"/>
<polygon points="86,17 75,33 95,41" fill="#3A4866" stroke="#3A4866"/>
<polygon points="60,30 49,34 20,45 42,56 60,60" fill="#55658A" stroke="#55658A"/>
<polygon points="60,30 71,34 100,45 78,56 60,60" fill="#3A4866" stroke="#3A4866"/>
<polygon points="20,45 10,66 24,88 42,56" fill="#3A4866" stroke="#3A4866"/>
<polygon points="100,45 110,66 96,88 78,56" fill="#172238" stroke="#172238"/>
<polygon points="42,56 24,88 60,103 60,60" fill="#55658A" stroke="#55658A"/>
<polygon points="78,56 96,88 60,103 60,60" fill="#3A4866" stroke="#3A4866"/>
<polygon points="24,88 60,116 60,103" fill="#3A4866" stroke="#3A4866"/>
<polygon points="96,88 60,116 60,103" fill="#172238" stroke="#172238"/>
</g>
<path d="M37.5 54.5 Q44.5 49.5 51.5 55 Q44.5 58.8 37.5 54.5 Z M82.5 54.5 Q75.5 49.5 68.5 55 Q75.5 58.8 82.5 54.5 Z" fill="#F2B230"/>
<polygon points="53.5,98.5 66.5,98.5 60,107" fill="#172238" stroke="#172238" stroke-width="1.6" stroke-linejoin="round"/></svg>
