<svg xmlns="http://www.w3.org/2000/svg" viewBox="0 0 120 120" role="img" aria-label="sidequest Wolf, Variante 17-plakette, gelb"><title>sidequest Wolf, Variante 17-plakette, gelb</title><defs><clipPath id="w17-c-gelb"><circle cx="60" cy="60" r="47"/></clipPath></defs>
<circle cx="60" cy="60" r="55" fill="none" stroke="#172238" stroke-width="2.6"/>
<circle cx="60" cy="60" r="49" fill="none" stroke="#172238" stroke-width="1.2"/>
<path d="M60 3.6 L63.4 8 L60 12.4 L56.6 8 Z" fill="#FFFFFF"/>
<g clip-path="url(#w17-c-gelb)"><g transform="matrix(.86 0 0 .86 8.4 8.7)">
<path d="M34 122 C30 100 29 80 34 64 C36 56 38 50 41 45 L44 24 Q45 19 49 22 L58 37 C64 37 70 39 74 43 C77 46 80 48 84 49 L100 54 C105 55.5 108 59 107 63 C106 67 102 68.5 98 69 L89 70.5 C85 75 80 79 74 81 C71 84 70 87 70 90 C73 92 75 95 72 98 C70 99 69 101 70 103 C72 106 71 109 67 111 C66 114 66 118 66 122" fill="none" stroke="#172238" stroke-width="4" stroke-linejoin="round" stroke-linecap="round"/>
<path d="M67 51.5 Q72 48 77.5 50.3 Q72.5 53.5 67 51.5 Z" fill="#172238"/>
<ellipse cx="104.6" cy="59.6" rx="3.4" ry="3" fill="#172238"/>
<path d="M47.5 28 L53 36" fill="none" stroke="#172238" stroke-width="3" stroke-linecap="round"/>
</g></g></svg>
